<mxfile host="app.diagrams.net" modified="2024-01-11T13:52:21.703Z" agent="Mozilla/5.0 (Windows NT 10.0; Win64; x64) AppleWebKit/537.36 (KHTML, like Gecko) Chrome/120.0.0.0 Safari/537.36" etag="UG00AkUajFWbozqs5e73" version="22.1.18" type="device">
  <diagram name="Halaman-1" id="ryzAaEL8nTYD95idWpFs">
    <mxGraphModel dx="2150" dy="1800" grid="0" gridSize="10" guides="1" tooltips="1" connect="1" arrows="1" fold="1" page="1" pageScale="1" pageWidth="850" pageHeight="1100" math="0" shadow="0">
      <root>
        <mxCell id="0" />
        <mxCell id="1" parent="0" />
        <mxCell id="5eWQ6kYwTz9-r7VQ8J_c-1" value="" style="edgeStyle=none;curved=1;rounded=0;orthogonalLoop=1;jettySize=auto;html=1;fontSize=12;startSize=8;endSize=8;" parent="1" source="5eWQ6kYwTz9-r7VQ8J_c-3" target="5eWQ6kYwTz9-r7VQ8J_c-6" edge="1">
          <mxGeometry relative="1" as="geometry" />
        </mxCell>
        <mxCell id="5eWQ6kYwTz9-r7VQ8J_c-2" value="M" style="edgeLabel;html=1;align=center;verticalAlign=middle;resizable=0;points=[];fontSize=16;" parent="5eWQ6kYwTz9-r7VQ8J_c-1" vertex="1" connectable="0">
          <mxGeometry x="0.0697" y="2" relative="1" as="geometry">
            <mxPoint y="-1" as="offset" />
          </mxGeometry>
        </mxCell>
        <mxCell id="5eWQ6kYwTz9-r7VQ8J_c-3" value="Pegawai" style="rounded=0;whiteSpace=wrap;html=1;fontSize=16;" parent="1" vertex="1">
          <mxGeometry x="140" y="170" width="120" height="60" as="geometry" />
        </mxCell>
        <mxCell id="5eWQ6kYwTz9-r7VQ8J_c-4" value="" style="edgeStyle=none;curved=1;rounded=0;orthogonalLoop=1;jettySize=auto;html=1;fontSize=12;startSize=8;endSize=8;" parent="1" source="5eWQ6kYwTz9-r7VQ8J_c-6" target="5eWQ6kYwTz9-r7VQ8J_c-7" edge="1">
          <mxGeometry relative="1" as="geometry" />
        </mxCell>
        <mxCell id="5eWQ6kYwTz9-r7VQ8J_c-5" value="1" style="edgeLabel;html=1;align=center;verticalAlign=middle;resizable=0;points=[];fontSize=16;" parent="5eWQ6kYwTz9-r7VQ8J_c-4" vertex="1" connectable="0">
          <mxGeometry x="-0.3372" y="2" relative="1" as="geometry">
            <mxPoint y="1" as="offset" />
          </mxGeometry>
        </mxCell>
        <mxCell id="5eWQ6kYwTz9-r7VQ8J_c-6" value="Bertanggung jawab" style="rhombus;whiteSpace=wrap;html=1;fontSize=16;rounded=0;" parent="1" vertex="1">
          <mxGeometry x="120.5" y="23" width="159" height="80" as="geometry" />
        </mxCell>
        <mxCell id="5eWQ6kYwTz9-r7VQ8J_c-7" value="Manager_Supermarket" style="whiteSpace=wrap;html=1;fontSize=16;rounded=0;" parent="1" vertex="1">
          <mxGeometry x="113.5" y="-124" width="173" height="60" as="geometry" />
        </mxCell>
        <mxCell id="5eWQ6kYwTz9-r7VQ8J_c-8" value="" style="edgeStyle=none;curved=1;rounded=0;orthogonalLoop=1;jettySize=auto;html=1;fontSize=12;startSize=8;endSize=8;entryX=0;entryY=0.5;entryDx=0;entryDy=0;exitX=1;exitY=0.5;exitDx=0;exitDy=0;" parent="1" source="5eWQ6kYwTz9-r7VQ8J_c-13" target="5eWQ6kYwTz9-r7VQ8J_c-10" edge="1">
          <mxGeometry relative="1" as="geometry">
            <mxPoint x="203" y="507" as="sourcePoint" />
            <mxPoint x="180" y="443" as="targetPoint" />
          </mxGeometry>
        </mxCell>
        <mxCell id="5eWQ6kYwTz9-r7VQ8J_c-9" value="1" style="edgeLabel;html=1;align=center;verticalAlign=middle;resizable=0;points=[];fontSize=16;" parent="5eWQ6kYwTz9-r7VQ8J_c-8" vertex="1" connectable="0">
          <mxGeometry x="-0.0072" y="-1" relative="1" as="geometry">
            <mxPoint y="-1" as="offset" />
          </mxGeometry>
        </mxCell>
        <mxCell id="5eWQ6kYwTz9-r7VQ8J_c-10" value="Memberikan Pelatihan" style="rhombus;whiteSpace=wrap;html=1;fontSize=16;rounded=0;" parent="1" vertex="1">
          <mxGeometry x="123" y="328.39" width="149" height="80" as="geometry" />
        </mxCell>
        <mxCell id="5eWQ6kYwTz9-r7VQ8J_c-11" value="" style="edgeStyle=none;curved=1;rounded=0;orthogonalLoop=1;jettySize=auto;html=1;fontSize=12;startSize=8;endSize=8;" parent="1" source="5eWQ6kYwTz9-r7VQ8J_c-13" target="5eWQ6kYwTz9-r7VQ8J_c-45" edge="1">
          <mxGeometry relative="1" as="geometry" />
        </mxCell>
        <mxCell id="5eWQ6kYwTz9-r7VQ8J_c-12" value="1" style="edgeLabel;html=1;align=center;verticalAlign=middle;resizable=0;points=[];fontSize=16;" parent="5eWQ6kYwTz9-r7VQ8J_c-11" vertex="1" connectable="0">
          <mxGeometry x="-0.0103" y="1" relative="1" as="geometry">
            <mxPoint as="offset" />
          </mxGeometry>
        </mxCell>
        <mxCell id="5eWQ6kYwTz9-r7VQ8J_c-13" value="Bagian_Pelatihan" style="whiteSpace=wrap;html=1;fontSize=16;rounded=0;" parent="1" vertex="1">
          <mxGeometry x="-123" y="338.39" width="144" height="60" as="geometry" />
        </mxCell>
        <mxCell id="5eWQ6kYwTz9-r7VQ8J_c-14" value="" style="edgeStyle=none;curved=1;rounded=0;orthogonalLoop=1;jettySize=auto;html=1;fontSize=12;startSize=8;endSize=8;exitX=0.5;exitY=0;exitDx=0;exitDy=0;" parent="1" edge="1" source="5eWQ6kYwTz9-r7VQ8J_c-10">
          <mxGeometry relative="1" as="geometry">
            <mxPoint x="199" y="301" as="sourcePoint" />
            <mxPoint x="199" y="228" as="targetPoint" />
          </mxGeometry>
        </mxCell>
        <mxCell id="5eWQ6kYwTz9-r7VQ8J_c-15" value="M" style="edgeLabel;html=1;align=center;verticalAlign=middle;resizable=0;points=[];fontSize=16;" parent="5eWQ6kYwTz9-r7VQ8J_c-14" vertex="1" connectable="0">
          <mxGeometry x="-0.1164" y="4" relative="1" as="geometry">
            <mxPoint as="offset" />
          </mxGeometry>
        </mxCell>
        <mxCell id="5eWQ6kYwTz9-r7VQ8J_c-16" value="Mengelola" style="rhombus;whiteSpace=wrap;html=1;fontSize=16;rounded=0;" parent="1" vertex="1">
          <mxGeometry x="-105" y="160" width="105" height="80" as="geometry" />
        </mxCell>
        <mxCell id="5eWQ6kYwTz9-r7VQ8J_c-17" value="" style="edgeStyle=none;curved=1;rounded=0;orthogonalLoop=1;jettySize=auto;html=1;fontSize=12;startSize=8;endSize=8;" parent="1" source="5eWQ6kYwTz9-r7VQ8J_c-19" target="5eWQ6kYwTz9-r7VQ8J_c-39" edge="1">
          <mxGeometry relative="1" as="geometry" />
        </mxCell>
        <mxCell id="5eWQ6kYwTz9-r7VQ8J_c-18" value="1" style="edgeLabel;html=1;align=center;verticalAlign=middle;resizable=0;points=[];fontSize=16;" parent="5eWQ6kYwTz9-r7VQ8J_c-17" vertex="1" connectable="0">
          <mxGeometry x="-0.2241" y="3" relative="1" as="geometry">
            <mxPoint as="offset" />
          </mxGeometry>
        </mxCell>
        <mxCell id="5eWQ6kYwTz9-r7VQ8J_c-19" value="Bagian_Personalia" style="whiteSpace=wrap;html=1;fontSize=16;rounded=0;" parent="1" vertex="1">
          <mxGeometry x="-370" y="170" width="152.5" height="60" as="geometry" />
        </mxCell>
        <mxCell id="5eWQ6kYwTz9-r7VQ8J_c-20" value="" style="edgeStyle=none;curved=1;rounded=0;orthogonalLoop=1;jettySize=auto;html=1;fontSize=12;startSize=8;endSize=8;entryX=0;entryY=0.5;entryDx=0;entryDy=0;exitX=1;exitY=0.5;exitDx=0;exitDy=0;" parent="1" source="5eWQ6kYwTz9-r7VQ8J_c-16" target="5eWQ6kYwTz9-r7VQ8J_c-3" edge="1">
          <mxGeometry relative="1" as="geometry">
            <mxPoint x="33" y="233" as="sourcePoint" />
            <mxPoint x="33" y="160" as="targetPoint" />
          </mxGeometry>
        </mxCell>
        <mxCell id="5eWQ6kYwTz9-r7VQ8J_c-21" value="" style="edgeStyle=none;curved=1;rounded=0;orthogonalLoop=1;jettySize=auto;html=1;fontSize=12;startSize=8;endSize=8;entryX=0;entryY=0.5;entryDx=0;entryDy=0;exitX=1;exitY=0.5;exitDx=0;exitDy=0;" parent="1" source="5eWQ6kYwTz9-r7VQ8J_c-19" target="5eWQ6kYwTz9-r7VQ8J_c-16" edge="1">
          <mxGeometry relative="1" as="geometry">
            <mxPoint x="-270" y="196" as="sourcePoint" />
            <mxPoint x="-130" y="196" as="targetPoint" />
          </mxGeometry>
        </mxCell>
        <mxCell id="5eWQ6kYwTz9-r7VQ8J_c-22" style="edgeStyle=none;curved=1;rounded=0;orthogonalLoop=1;jettySize=auto;html=1;entryX=1;entryY=0.5;entryDx=0;entryDy=0;fontSize=12;startSize=8;endSize=8;" parent="1" source="5eWQ6kYwTz9-r7VQ8J_c-24" target="5eWQ6kYwTz9-r7VQ8J_c-3" edge="1">
          <mxGeometry relative="1" as="geometry" />
        </mxCell>
        <mxCell id="5eWQ6kYwTz9-r7VQ8J_c-23" value="M" style="edgeLabel;html=1;align=center;verticalAlign=middle;resizable=0;points=[];fontSize=16;" parent="5eWQ6kYwTz9-r7VQ8J_c-22" vertex="1" connectable="0">
          <mxGeometry x="-0.1548" relative="1" as="geometry">
            <mxPoint as="offset" />
          </mxGeometry>
        </mxCell>
        <mxCell id="5eWQ6kYwTz9-r7VQ8J_c-24" value="Mengontrol" style="rhombus;whiteSpace=wrap;html=1;fontSize=16;rounded=0;" parent="1" vertex="1">
          <mxGeometry x="400" y="160" width="107" height="80" as="geometry" />
        </mxCell>
        <mxCell id="5eWQ6kYwTz9-r7VQ8J_c-25" style="edgeStyle=none;curved=1;rounded=0;orthogonalLoop=1;jettySize=auto;html=1;entryX=1;entryY=0.5;entryDx=0;entryDy=0;fontSize=12;startSize=8;endSize=8;" parent="1" source="5eWQ6kYwTz9-r7VQ8J_c-29" target="5eWQ6kYwTz9-r7VQ8J_c-24" edge="1">
          <mxGeometry relative="1" as="geometry" />
        </mxCell>
        <mxCell id="5eWQ6kYwTz9-r7VQ8J_c-26" value="1" style="edgeLabel;html=1;align=center;verticalAlign=middle;resizable=0;points=[];fontSize=16;" parent="5eWQ6kYwTz9-r7VQ8J_c-25" vertex="1" connectable="0">
          <mxGeometry x="0.104" y="-4" relative="1" as="geometry">
            <mxPoint as="offset" />
          </mxGeometry>
        </mxCell>
        <mxCell id="5eWQ6kYwTz9-r7VQ8J_c-27" value="" style="edgeStyle=none;curved=1;rounded=0;orthogonalLoop=1;jettySize=auto;html=1;fontSize=12;startSize=8;endSize=8;" parent="1" source="5eWQ6kYwTz9-r7VQ8J_c-29" target="5eWQ6kYwTz9-r7VQ8J_c-48" edge="1">
          <mxGeometry relative="1" as="geometry" />
        </mxCell>
        <mxCell id="5eWQ6kYwTz9-r7VQ8J_c-28" value="1" style="edgeLabel;html=1;align=center;verticalAlign=middle;resizable=0;points=[];fontSize=16;" parent="5eWQ6kYwTz9-r7VQ8J_c-27" vertex="1" connectable="0">
          <mxGeometry x="0.0441" relative="1" as="geometry">
            <mxPoint as="offset" />
          </mxGeometry>
        </mxCell>
        <mxCell id="5eWQ6kYwTz9-r7VQ8J_c-29" value="Bagian_Pengontrol_Kinerja" style="rounded=0;whiteSpace=wrap;html=1;fontSize=16;" parent="1" vertex="1">
          <mxGeometry x="616" y="170" width="207" height="60" as="geometry" />
        </mxCell>
        <mxCell id="5eWQ6kYwTz9-r7VQ8J_c-30" style="edgeStyle=none;curved=1;rounded=0;orthogonalLoop=1;jettySize=auto;html=1;entryX=0.75;entryY=1;entryDx=0;entryDy=0;fontSize=12;startSize=8;endSize=8;" parent="1" source="5eWQ6kYwTz9-r7VQ8J_c-3" target="5eWQ6kYwTz9-r7VQ8J_c-3" edge="1">
          <mxGeometry relative="1" as="geometry" />
        </mxCell>
        <mxCell id="5eWQ6kYwTz9-r7VQ8J_c-31" value="" style="edgeStyle=none;curved=1;rounded=0;orthogonalLoop=1;jettySize=auto;html=1;fontSize=12;startSize=8;endSize=8;" parent="1" source="5eWQ6kYwTz9-r7VQ8J_c-33" target="5eWQ6kYwTz9-r7VQ8J_c-36" edge="1">
          <mxGeometry relative="1" as="geometry" />
        </mxCell>
        <mxCell id="5eWQ6kYwTz9-r7VQ8J_c-32" value="1" style="edgeLabel;html=1;align=center;verticalAlign=middle;resizable=0;points=[];fontSize=16;" parent="5eWQ6kYwTz9-r7VQ8J_c-31" vertex="1" connectable="0">
          <mxGeometry x="0.1206" relative="1" as="geometry">
            <mxPoint y="1" as="offset" />
          </mxGeometry>
        </mxCell>
        <mxCell id="5eWQ6kYwTz9-r7VQ8J_c-33" value="Bagian_Departemen" style="rounded=0;whiteSpace=wrap;html=1;fontSize=16;" parent="1" vertex="1">
          <mxGeometry x="327" y="471" width="165" height="60" as="geometry" />
        </mxCell>
        <mxCell id="5eWQ6kYwTz9-r7VQ8J_c-34" style="edgeStyle=none;curved=1;rounded=0;orthogonalLoop=1;jettySize=auto;html=1;entryX=0.75;entryY=1;entryDx=0;entryDy=0;fontSize=12;startSize=8;endSize=8;exitX=0.5;exitY=0;exitDx=0;exitDy=0;" parent="1" source="5eWQ6kYwTz9-r7VQ8J_c-36" target="5eWQ6kYwTz9-r7VQ8J_c-3" edge="1">
          <mxGeometry relative="1" as="geometry" />
        </mxCell>
        <mxCell id="5eWQ6kYwTz9-r7VQ8J_c-35" value="M" style="edgeLabel;html=1;align=center;verticalAlign=middle;resizable=0;points=[];fontSize=16;" parent="5eWQ6kYwTz9-r7VQ8J_c-34" vertex="1" connectable="0">
          <mxGeometry x="-0.0825" y="-5" relative="1" as="geometry">
            <mxPoint as="offset" />
          </mxGeometry>
        </mxCell>
        <mxCell id="5eWQ6kYwTz9-r7VQ8J_c-36" value="Mengelola" style="rhombus;whiteSpace=wrap;html=1;fontSize=16;rounded=0;" parent="1" vertex="1">
          <mxGeometry x="357.5" y="272" width="104" height="80" as="geometry" />
        </mxCell>
        <mxCell id="5eWQ6kYwTz9-r7VQ8J_c-37" value="" style="edgeStyle=none;curved=1;rounded=0;orthogonalLoop=1;jettySize=auto;html=1;fontSize=12;startSize=8;endSize=8;" parent="1" source="5eWQ6kYwTz9-r7VQ8J_c-39" target="5eWQ6kYwTz9-r7VQ8J_c-42" edge="1">
          <mxGeometry relative="1" as="geometry" />
        </mxCell>
        <mxCell id="5eWQ6kYwTz9-r7VQ8J_c-38" value="1" style="edgeLabel;html=1;align=center;verticalAlign=middle;resizable=0;points=[];fontSize=16;" parent="5eWQ6kYwTz9-r7VQ8J_c-37" vertex="1" connectable="0">
          <mxGeometry x="-0.0473" y="2" relative="1" as="geometry">
            <mxPoint as="offset" />
          </mxGeometry>
        </mxCell>
        <mxCell id="5eWQ6kYwTz9-r7VQ8J_c-39" value="Bertanggung &lt;br&gt;Jawab" style="rhombus;whiteSpace=wrap;html=1;fontSize=16;rounded=0;" parent="1" vertex="1">
          <mxGeometry x="-381.75" y="346" width="176" height="80" as="geometry" />
        </mxCell>
        <mxCell id="5eWQ6kYwTz9-r7VQ8J_c-40" value="" style="edgeStyle=none;curved=1;rounded=0;orthogonalLoop=1;jettySize=auto;html=1;fontSize=12;startSize=8;endSize=8;" parent="1" source="5eWQ6kYwTz9-r7VQ8J_c-42" target="5eWQ6kYwTz9-r7VQ8J_c-51" edge="1">
          <mxGeometry relative="1" as="geometry" />
        </mxCell>
        <mxCell id="5eWQ6kYwTz9-r7VQ8J_c-41" value="1" style="edgeLabel;html=1;align=center;verticalAlign=middle;resizable=0;points=[];fontSize=16;" parent="5eWQ6kYwTz9-r7VQ8J_c-40" vertex="1" connectable="0">
          <mxGeometry x="-0.1368" y="4" relative="1" as="geometry">
            <mxPoint as="offset" />
          </mxGeometry>
        </mxCell>
        <mxCell id="5eWQ6kYwTz9-r7VQ8J_c-42" value="Manager_HRD" style="whiteSpace=wrap;html=1;fontSize=16;rounded=0;" parent="1" vertex="1">
          <mxGeometry x="-355.5" y="550" width="120" height="60" as="geometry" />
        </mxCell>
        <mxCell id="5eWQ6kYwTz9-r7VQ8J_c-43" style="edgeStyle=none;curved=1;rounded=0;orthogonalLoop=1;jettySize=auto;html=1;entryX=1;entryY=0.5;entryDx=0;entryDy=0;fontSize=12;startSize=8;endSize=8;" parent="1" source="5eWQ6kYwTz9-r7VQ8J_c-45" target="5eWQ6kYwTz9-r7VQ8J_c-42" edge="1">
          <mxGeometry relative="1" as="geometry" />
        </mxCell>
        <mxCell id="5eWQ6kYwTz9-r7VQ8J_c-44" value="1" style="edgeLabel;html=1;align=center;verticalAlign=middle;resizable=0;points=[];fontSize=16;" parent="5eWQ6kYwTz9-r7VQ8J_c-43" vertex="1" connectable="0">
          <mxGeometry x="-0.0695" y="-3" relative="1" as="geometry">
            <mxPoint as="offset" />
          </mxGeometry>
        </mxCell>
        <mxCell id="5eWQ6kYwTz9-r7VQ8J_c-45" value="Bertanggung&lt;br&gt;Jawab" style="rhombus;whiteSpace=wrap;html=1;fontSize=16;rounded=0;" parent="1" vertex="1">
          <mxGeometry x="-131.28" y="532" width="154" height="99" as="geometry" />
        </mxCell>
        <mxCell id="5eWQ6kYwTz9-r7VQ8J_c-48" value="Bertanggung&lt;br&gt;Jawab" style="rhombus;whiteSpace=wrap;html=1;fontSize=16;rounded=0;" parent="1" vertex="1">
          <mxGeometry x="640" y="327" width="164" height="93" as="geometry" />
        </mxCell>
        <mxCell id="5eWQ6kYwTz9-r7VQ8J_c-49" value="" style="edgeStyle=none;curved=1;rounded=0;orthogonalLoop=1;jettySize=auto;html=1;fontSize=12;startSize=8;endSize=8;" parent="1" source="5eWQ6kYwTz9-r7VQ8J_c-51" target="5eWQ6kYwTz9-r7VQ8J_c-52" edge="1">
          <mxGeometry relative="1" as="geometry" />
        </mxCell>
        <mxCell id="5eWQ6kYwTz9-r7VQ8J_c-50" value="1" style="edgeLabel;html=1;align=center;verticalAlign=middle;resizable=0;points=[];fontSize=16;" parent="5eWQ6kYwTz9-r7VQ8J_c-49" vertex="1" connectable="0">
          <mxGeometry x="0.0819" relative="1" as="geometry">
            <mxPoint as="offset" />
          </mxGeometry>
        </mxCell>
        <mxCell id="5eWQ6kYwTz9-r7VQ8J_c-51" value="Bertanggung&lt;br&gt;Jawab" style="rhombus;whiteSpace=wrap;html=1;fontSize=16;rounded=0;" parent="1" vertex="1">
          <mxGeometry x="-585" y="529" width="151.5" height="102" as="geometry" />
        </mxCell>
        <mxCell id="5eWQ6kYwTz9-r7VQ8J_c-52" value="Manager_Supermarket" style="whiteSpace=wrap;html=1;fontSize=16;rounded=0;" parent="1" vertex="1">
          <mxGeometry x="-600.87" y="219" width="183.25" height="60" as="geometry" />
        </mxCell>
        <mxCell id="3lT5WV4alLXsIbObDiYf-1" value="" style="endArrow=none;html=1;rounded=0;" edge="1" parent="1">
          <mxGeometry width="50" height="50" relative="1" as="geometry">
            <mxPoint x="-286" y="705" as="sourcePoint" />
            <mxPoint x="-286" y="608" as="targetPoint" />
          </mxGeometry>
        </mxCell>
        <mxCell id="3lT5WV4alLXsIbObDiYf-4" value="1" style="edgeLabel;html=1;align=center;verticalAlign=middle;resizable=0;points=[];" vertex="1" connectable="0" parent="3lT5WV4alLXsIbObDiYf-1">
          <mxGeometry x="-0.1525" y="-1" relative="1" as="geometry">
            <mxPoint as="offset" />
          </mxGeometry>
        </mxCell>
        <mxCell id="3lT5WV4alLXsIbObDiYf-2" value="" style="endArrow=none;html=1;rounded=0;" edge="1" parent="1">
          <mxGeometry width="50" height="50" relative="1" as="geometry">
            <mxPoint x="-285.5" y="707" as="sourcePoint" />
            <mxPoint x="725" y="707" as="targetPoint" />
          </mxGeometry>
        </mxCell>
        <mxCell id="3lT5WV4alLXsIbObDiYf-3" value="" style="endArrow=none;html=1;rounded=0;entryX=0.5;entryY=1;entryDx=0;entryDy=0;" edge="1" parent="1" target="5eWQ6kYwTz9-r7VQ8J_c-48">
          <mxGeometry width="50" height="50" relative="1" as="geometry">
            <mxPoint x="723" y="707" as="sourcePoint" />
            <mxPoint x="773" y="657" as="targetPoint" />
          </mxGeometry>
        </mxCell>
        <mxCell id="3lT5WV4alLXsIbObDiYf-5" value="1" style="edgeLabel;html=1;align=center;verticalAlign=middle;resizable=0;points=[];" vertex="1" connectable="0" parent="3lT5WV4alLXsIbObDiYf-3">
          <mxGeometry x="0.0171" y="-2" relative="1" as="geometry">
            <mxPoint as="offset" />
          </mxGeometry>
        </mxCell>
      </root>
    </mxGraphModel>
  </diagram>
</mxfile>
